<?xml version="1.0" encoding="iso-8859-1"?>
<!-- Generator: Adobe Illustrator 18.1.1, SVG Export Plug-In . SVG Version: 6.00 Build 0)  -->
<svg version="1.1" id="Capa_1" xmlns="http://www.w3.org/2000/svg" xmlns:xlink="http://www.w3.org/1999/xlink" x="0px" y="0px"
	 viewBox="0 0 23.303 23.303" style="enable-background:new 0 0 23.303 23.303;" xml:space="preserve">
<g>
	<g>
		<path style="fill:#010002;" d="M0,22.694h23.303V7.68H0V22.694z M12.379,10.38c2.409,0,4.124,1.647,4.124,3.935
			c0,1.999-1.117,3.252-2.586,3.252c-0.642,0-1.104-0.342-1.17-1.048h-0.026c-0.437,0.68-1.035,1.048-1.771,1.048
			c-0.871,0-1.524-0.667-1.524-1.784c0-1.674,1.238-3.171,3.198-3.171c0.598,0,1.278,0.148,1.605,0.326l-0.408,2.533
			c-0.125,0.802-0.026,1.168,0.354,1.183c0.585,0.028,1.319-0.721,1.319-2.3c0-1.784-1.144-3.144-3.253-3.144
			c-2.097,0-3.906,1.621-3.906,4.233c0,2.286,1.441,3.563,3.472,3.563c0.694,0,1.441-0.147,1.986-0.42l0.231,0.777
			c-0.815,0.366-1.522,0.489-2.489,0.489c-2.262,0-4.247-1.619-4.247-4.287C7.289,12.788,9.317,10.38,12.379,10.38z"/>
		<path style="fill:#010002;" d="M10.801,15.622c0,0.516,0.23,0.844,0.666,0.844c0.517,0,1.049-0.641,1.157-1.43l0.203-1.293
			c-0.106-0.027-0.257-0.055-0.423-0.055C11.507,13.688,10.801,14.573,10.801,15.622z"/>
		<polygon style="fill:#010002;" points="11.677,0.608 0,6.983 23.303,6.983 		"/>
	</g>
</g>
<g>
</g>
<g>
</g>
<g>
</g>
<g>
</g>
<g>
</g>
<g>
</g>
<g>
</g>
<g>
</g>
<g>
</g>
<g>
</g>
<g>
</g>
<g>
</g>
<g>
</g>
<g>
</g>
<g>
</g>
</svg>
